HIERARCHY
ROOT Hips
{
	OFFSET 0.00000 0.00000 0.00000
	CHANNELS 6 Xposition Yposition Zposition Zrotation Yrotation Xrotation 
	JOINT LHipJoint
	{
		OFFSET 0 0 0
		CHANNELS 3 Zrotation Yrotation Xrotation
		JOINT LeftUpLeg
		{
			OFFSET 1.43652 -1.81092 0.91346
			CHANNELS 3 Zrotation Yrotation Xrotation
			JOINT LeftLeg
			{
				OFFSET 2.45984 -6.75837 0.00000
				CHANNELS 3 Zrotation Yrotation Xrotation
				JOINT LeftFoot
				{
					OFFSET 2.63718 -7.24559 0.00000
					CHANNELS 3 Zrotation Yrotation Xrotation
					JOINT LeftToeBase
					{
						OFFSET 0.19690 -0.54098 2.12239
						CHANNELS 3 Zrotation Yrotation Xrotation
						End Site
						{
							OFFSET 0.00000 -0.00000 1.10116
						}
					}
				}
			}
		}
	}
	JOINT RHipJoint
	{
		OFFSET 0 0 0
		CHANNELS 3 Zrotation Yrotation Xrotation
		JOINT RightUpLeg
		{
			OFFSET -1.35116 -1.81092 0.91345
			CHANNELS 3 Zrotation Yrotation Xrotation
			JOINT RightLeg
			{
				OFFSET -2.55576 -7.02189 0.00000
				CHANNELS 3 Zrotation Yrotation Xrotation
				JOINT RightFoot
				{
					OFFSET -2.61938 -7.19669 0.00000
					CHANNELS 3 Zrotation Yrotation Xrotation
					JOINT RightToeBase
					{
						OFFSET -0.32509 -0.89318 2.23646
						CHANNELS 3 Zrotation Yrotation Xrotation
						End Site
						{
							OFFSET -0.00000 -0.00000 1.19625
						}
					}
				}
			}
		}
	}
	JOINT LowerBack
	{
		OFFSET 0 0 0
		CHANNELS 3 Zrotation Yrotation Xrotation
		JOINT Spine
		{
			OFFSET 0.05193 2.08077 -0.11958
			CHANNELS 3 Zrotation Yrotation Xrotation
			JOINT Spine1
			{
				OFFSET 0.04960 2.08447 0.01967
				CHANNELS 3 Zrotation Yrotation Xrotation
				JOINT Neck
				{
					OFFSET 0 0 0
					CHANNELS 3 Zrotation Yrotation Xrotation
					JOINT Neck1
					{
						OFFSET -0.10699 1.82066 0.27584
						CHANNELS 3 Zrotation Yrotation Xrotation
						JOINT Head
						{
							OFFSET 0.14949 1.84747 -0.32279
							CHANNELS 3 Zrotation Yrotation Xrotation
							End Site
							{
								OFFSET 0.04969 1.88916 -0.14562
							}
						}
					}
				}
				JOINT LeftShoulder
				{
					OFFSET 0 0 0
					CHANNELS 3 Zrotation Yrotation Xrotation
					JOINT LeftArm
					{
						OFFSET 3.73629 1.27211 -0.12847
						CHANNELS 3 Zrotation Yrotation Xrotation
						JOINT LeftForeArm
						{
							OFFSET 5.10995 -0.00000 0.00000
							CHANNELS 3 Zrotation Yrotation Xrotation
							JOINT LeftHand
							{
								OFFSET 3.21207 -0.00000 0.00000
								CHANNELS 3 Zrotation Yrotation Xrotation
								JOINT LeftFingerBase
								{
									OFFSET 0 0 0
									CHANNELS 3 Zrotation Yrotation Xrotation
									JOINT LeftHandIndex1
									{
										OFFSET 0.63349 -0.00000 0.00000
										CHANNELS 3 Zrotation Yrotation Xrotation
										End Site
										{
											OFFSET 0.51074 -0.00000 0.00000
										}
									}
								}
								JOINT LThumb
								{
									OFFSET 0 0 0
									CHANNELS 3 Zrotation Yrotation Xrotation
									End Site
									{
										OFFSET 0.51853 -0.00000 0.51853
									}
								}
							}
						}
					}
				}
				JOINT RightShoulder
				{
					OFFSET 0 0 0
					CHANNELS 3 Zrotation Yrotation Xrotation
					JOINT RightArm
					{
						OFFSET -3.70251 1.29541 -0.35354
						CHANNELS 3 Zrotation Yrotation Xrotation
						JOINT RightForeArm
						{
							OFFSET -5.25109 -0.00000 0.00000
							CHANNELS 3 Zrotation Yrotation Xrotation
							JOINT RightHand
							{
								OFFSET -3.28364 -0.00000 0.00000
								CHANNELS 3 Zrotation Yrotation Xrotation
								JOINT RightFingerBase
								{
									OFFSET 0 0 0
									CHANNELS 3 Zrotation Yrotation Xrotation
									JOINT RightHandIndex1
									{
										OFFSET -0.59974 -0.00000 0.00000
										CHANNELS 3 Zrotation Yrotation Xrotation
										End Site
										{
											OFFSET -0.48353 -0.00000 0.00000
										}
									}
								}
								JOINT RThumb
								{
									OFFSET 0 0 0
									CHANNELS 3 Zrotation Yrotation Xrotation
									End Site
									{
										OFFSET -0.49091 -0.00000 0.49091
									}
								}
							}
						}
					}
				}
			}
		}
	}
}
MOTION
Frames: 11
Frame Time: .0083333
1.3404 17.7507 -23.8527 0 0 0 0 0 0 -21 0 0 0 0 0 0 0 0 0 0 0 0 0 0 21 0 0 0 0 0 0 0 0 0 0 0 0 0 0 0 0 0 0 0 0 0 0 -16 0 0 21 0 0 11 0 0 0 -8 0 0 0 0 0 0 0 0 0 0 0 0 0 0 0 0 0 0 0 0 8 0 0 0 0 0 0 0 0 0 0 0 0 0 0 0 0 0
1.3404 17.7507 -23.8527 -5.9841 -8.4529 6.2723 0.0000 0.0000 0.0000 -13.0496 1.9107 -20.8595 2.6281 10.0672 29.1946 -0.3365 13.2382 -13.8459 0.0163 0.8243 2.2654 0.0000 0.0000 0.0000 25.8575 7.9773 -8.4193 -1.9385 -8.7369 24.9757 -0.9913 -6.0469 -21.9232 -0.1072 -2.1113 5.8132 2.1438 0.7469 5.3090 0.6023 1.1618 -0.8593 -0.6802 0.5365 -3.8351 -19.7596 -15.6473 -4.2558 17.5824 -21.7524 8.4243 6.3789 -10.4951 7.4139 0.0000 -0.0000 0.0000 -91.3696 -0.6112 -7.5509 62.5227 -56.9455 -36.4480 -0.0000 0.0000 -79.0335 -11.0239 22.9258 -4.3397 -7.1250 0.0000 -0.0000 -38.3436 48.8499 -4.2148 0.0000 -0.0000 0.0000 88.6318 6.0490 19.1250 -16.0009 25.5218 -3.6463 0.0000 -0.0000 -5.3527 -13.5676 3.5737 -0.8618 7.1250 -0.0000 -0.0000 9.8840 -26.2792 4.5501
1.3107 17.7509 -23.8773 -6.1024 -8.4240 6.2035 0.0000 0.0000 0.0000 -12.7891 2.0885 -21.0011 2.6545 10.1136 29.3453 -0.3186 13.0145 -13.7339 0.0154 0.8024 2.2051 0.0000 0.0000 0.0000 26.1380 8.0270 -8.4446 -1.9495 -8.7600 25.0474 -0.9688 -6.2505 -21.8616 -0.0924 -1.9604 5.3962 2.4076 0.6923 5.3087 0.6449 1.1044 -0.6844 -0.7778 0.5060 -3.6516 -19.6853 -15.6667 -4.4246 17.7877 -21.7586 8.2105 6.4228 -10.4800 7.3944 0.0000 -0.0000 0.0000 -91.1953 -0.8675 -7.4854 62.5981 -56.9634 -36.5111 -0.0000 0.0000 -78.9035 -11.0481 22.9208 -4.3485 -7.1250 0.0000 -0.0000 -38.3606 48.8423 -4.2092 0.0000 -0.0000 0.0000 88.6624 6.4265 18.8786 -15.8728 25.3479 -3.5913 0.0000 -0.0000 -5.4298 -13.8546 3.6626 -0.9026 7.1250 -0.0000 -0.0000 9.6614 -26.1858 4.4663
1.2826 17.7509 -23.9020 -6.2480 -8.3264 6.2432 0.0000 0.0000 0.0000 -12.4893 2.1543 -21.3328 2.7085 10.2075 29.6512 -0.2627 12.6297 -14.0270 0.0314 1.1439 3.1447 0.0000 0.0000 0.0000 26.4089 8.0218 -8.5904 -1.9528 -8.7671 25.0696 -0.9569 -6.3005 -21.7894 -0.0920 -1.9563 5.3848 2.6340 0.6148 5.6656 0.7642 1.0380 -0.9093 -0.7827 0.4623 -4.0868 -19.7210 -15.6206 -4.2304 17.7634 -21.7206 8.1962 6.4427 -10.4753 7.3502 0.0000 -0.0000 0.0000 -91.1494 -0.4906 -7.4141 62.7614 -57.0020 -36.6481 -0.0000 0.0000 -78.7972 -11.1084 22.7269 -4.3379 -7.1250 0.0000 -0.0000 -38.2846 48.6757 -4.0200 0.0000 -0.0000 0.0000 88.5726 6.1675 18.6470 -15.7635 25.1989 -3.5447 0.0000 -0.0000 -5.4812 -14.1068 3.8298 -0.9617 7.1250 -0.0000 -0.0000 9.4598 -26.0126 4.4095
1.2571 17.7453 -23.9270 -6.3888 -8.2120 6.2104 0.0000 0.0000 0.0000 -12.2019 2.3120 -21.6381 2.7626 10.3005 29.9553 -0.2620 12.3778 -13.5610 0.0164 0.8281 2.2760 0.0000 0.0000 0.0000 26.6582 7.9797 -8.6407 -1.9574 -8.7767 25.0992 -0.9560 -6.2783 -21.7662 -0.0997 -2.0367 5.6070 2.9606 0.5426 5.6135 0.8147 0.9609 -0.7607 -0.9050 0.4208 -3.9017 -19.6487 -15.6232 -4.3948 17.8594 -21.6983 8.0741 6.4567 -10.4506 7.3397 0.0000 -0.0000 0.0000 -90.9953 -0.7443 -7.3524 62.8441 -57.0214 -36.7174 -0.0000 0.0000 -78.7748 -10.9910 22.8544 -4.3138 -7.1250 0.0000 -0.0000 -38.2695 48.7970 -4.1476 0.0000 -0.0000 0.0000 88.5393 6.3137 18.6455 -15.7820 25.2241 -3.5525 0.0000 -0.0000 -5.7376 -14.3622 3.6605 -0.9366 7.1250 -0.0000 -0.0000 9.2794 -26.1815 4.2861
1.2311 17.7426 -23.9517 -6.5294 -8.1060 6.2025 0.0000 0.0000 0.0000 -11.9103 2.4407 -21.9723 2.8238 10.4042 30.2959 -0.2384 12.0574 -13.4022 0.0137 0.7551 2.0752 0.0000 0.0000 0.0000 26.9120 7.9240 -8.7488 -1.9612 -8.7847 25.1241 -0.9463 -6.2941 -21.6893 -0.0987 -2.0264 5.5785 3.2502 0.4720 5.7019 0.8903 0.8931 -0.7412 -0.9842 0.3813 -3.9312 -19.6406 -15.5961 -4.4136 17.9320 -21.6576 7.9931 6.4863 -10.4279 7.3180 -0.0000 -0.0000 0.0000 -90.8833 -0.7790 -7.2697 62.9391 -57.0436 -36.7972 -0.0000 0.0000 -78.7253 -10.9602 22.8367 -4.2983 -7.1250 0.0000 -0.0000 -38.2322 48.7873 -4.1319 -0.0000 -0.0000 0.0000 88.5211 6.4136 18.3346 -15.6640 25.0630 -3.5024 0.0000 -0.0000 -5.6656 -14.5499 3.5605 -0.9234 7.1250 -0.0000 -0.0000 9.1449 -26.2811 4.2008
1.2064 17.7399 -23.9763 -6.6638 -7.9887 6.2007 0.0000 0.0000 0.0000 -11.6251 2.5734 -22.3388 2.8910 10.5165 30.6661 -0.2129 11.7023 -13.2297 0.0110 0.6772 1.8611 0.0000 0.0000 0.0000 27.1494 7.8395 -8.8764 -1.9645 -8.7918 25.1462 -0.9378 -6.2822 -21.6042 -0.0980 -2.0184 5.5566 3.5390 0.4025 5.7818 0.9664 0.8271 -0.7291 -1.0622 0.3425 -3.9641 -19.6617 -15.5632 -4.4164 18.0013 -21.6119 7.9366 6.5207 -10.4043 7.3034 0.0000 -0.0000 0.0000 -90.7808 -0.8110 -7.1708 63.0167 -57.0616 -36.8623 -0.0000 0.0000 -78.6963 -10.9329 22.8149 -4.2835 -7.1250 0.0000 -0.0000 -38.1951 48.7737 -4.1121 0.0000 -0.0000 0.0000 88.5044 6.5127 17.9522 -15.5285 24.8772 -3.4452 0.0000 -0.0000 -5.5011 -14.6964 3.3637 -0.8816 7.1250 -0.0000 -0.0000 9.0480 -26.4801 4.1125
1.1826 17.7373 -24.0005 -6.7802 -7.8679 6.1973 0.0000 0.0000 0.0000 -11.3614 2.7234 -22.7076 2.9560 10.6234 31.0202 -0.1866 11.3118 -13.0266 0.0089 0.6081 1.6711 0.0000 0.0000 0.0000 27.3602 7.7343 -9.0217 -1.9706 -8.8046 25.1859 -0.9315 -6.2495 -21.5246 -0.0971 -2.0096 5.5321 3.8127 0.3380 5.8388 1.0395 0.7655 -0.7098 -1.1349 0.3066 -3.9769 -19.6830 -15.5382 -4.4160 18.0494 -21.5756 7.8892 6.5466 -10.3861 7.2900 -0.0000 -0.0000 0.0000 -90.6877 -0.8644 -7.0516 63.0617 -57.0721 -36.9001 -0.0000 0.0000 -78.6741 -10.9128 22.7741 -4.2683 -7.1250 0.0000 -0.0000 -38.1517 48.7435 -4.0738 -0.0000 -0.0000 0.0000 88.4839 6.6224 17.5238 -15.3816 24.6751 -3.3837 0.0000 -0.0000 -5.2787 -14.8075 3.0829 -0.8145 7.1250 -0.0000 -0.0000 8.9835 -26.7656 4.0216
1.1598 17.7351 -24.0241 -6.8710 -7.7576 6.1956 0.0000 0.0000 0.0000 -11.1266 2.8909 -23.0803 3.0203 10.7278 31.3673 -0.1564 10.8819 -12.8493 0.0084 0.5916 1.6256 0.0000 0.0000 0.0000 27.5372 7.6182 -9.1805 -1.9783 -8.8208 25.2363 -0.9271 -6.1962 -21.4482 -0.0965 -2.0034 5.5151 4.0538 0.2836 5.9030 1.1094 0.7163 -0.7062 -1.1936 0.2770 -4.0103 -19.7337 -15.5204 -4.4045 18.0908 -21.5526 7.8738 6.5721 -10.3754 7.2899 0.0000 0.0000 0.0000 -90.6085 -0.9079 -6.9094 63.0676 -57.0735 -36.9050 -0.0000 0.0000 -78.6451 -10.9218 22.6979 -4.2583 -7.1250 0.0000 -0.0000 -38.1099 48.6802 -4.0006 0.0000 0.0000 0.0000 88.4591 6.7166 17.0299 -15.2115 24.4399 -3.3130 0.0000 -0.0000 -4.9939 -14.8834 2.7896 -0.7411 7.1250 -0.0000 -0.0000 8.9469 -27.0646 3.9411
1.1378 17.7329 -24.0468 -6.9289 -7.6615 6.1887 0.0000 0.0000 0.0000 -10.9278 3.0793 -23.4385 3.0815 10.8259 31.6949 -0.1259 10.4357 -12.6775 0.0088 0.6054 1.6636 0.0000 0.0000 0.0000 27.6752 7.5072 -9.3335 -1.9886 -8.8423 25.3031 -0.9260 -6.1298 -21.3923 -0.0976 -2.0150 5.5470 4.2582 0.2405 5.9379 1.1698 0.6775 -0.6913 -1.2423 0.2539 -4.0154 -19.7885 -15.5169 -4.4025 18.1236 -21.5480 7.8722 6.5909 -10.3731 7.2987 -0.0000 0.0000 0.0000 -90.5375 -0.9817 -6.7467 63.0301 -57.0647 -36.8735 -0.0000 0.0000 -78.6069 -10.9439 22.5959 -4.2490 -7.1250 0.0000 -0.0000 -38.0624 48.5939 -3.9022 -0.0000 0.0000 0.0000 88.4143 6.7820 16.6015 -15.0650 24.2366 -3.2526 0.0000 -0.0000 -4.7890 -14.9449 2.4836 -0.6627 7.1250 -0.0000 -0.0000 8.9226 -27.3770 3.8638
1.1163 17.7310 -24.0682 -6.9491 -7.5888 6.1730 0.0000 0.0000 0.0000 -10.7711 3.2992 -23.7681 3.1375 10.9144 31.9917 -0.0950 9.9803 -12.5255 0.0103 0.6540 1.7973 0.0000 0.0000 0.0000 27.7710 7.4149 -9.4793 -2.0021 -8.8704 25.3908 -0.9268 -6.0663 -21.3559 -0.0991 -2.0301 5.5888 4.4036 0.2094 5.9887 1.2278 0.6521 -0.6967 -1.2617 0.2379 -4.0505 -19.8572 -15.5213 -4.3902 18.1316 -21.5570 7.9092 6.6013 -10.3787 7.3189 -0.0000 -0.0000 0.0000 -90.4885 -1.0290 -6.5683 62.9736 -57.0516 -36.8261 -0.0000 0.0000 -78.5723 -10.9524 22.5040 -4.2361 -7.1250 0.0000 -0.0000 -38.0104 48.5178 -3.8143 -0.0000 -0.0000 0.0000 88.3537 6.8111 16.1508 -14.8922 23.9957 -3.1820 0.0000 -0.0000 -4.5693 -14.9995 2.2557 -0.6042 7.1250 -0.0000 -0.0000 8.8980 -27.6098 3.8035
